# xmcd CD database file
#
# Track frame offsets:
#	150
#	31470
#	55834
#	74585
#	100095
#	110719
#	141201
#	152288
#	174214
#
# Disc length: 2635 seconds
#
# Revision: 0
# Processed by: cddbd v1.5.1PL0 Copyright (c) Steve Scherf et al.
# Submitted via: CDex 1.51
#
DISCID=730a4909
DTITLE=Paul Filipowicz - Chinatown
DYEAR=2004
DGENRE=Blues
TTITLE0=Jackson Transfer
TTITLE1=Chintown
TTITLE2=Who Loves You
TTITLE3=Wichita Falls
TTITLE4=Too Hot To Boogie
TTITLE5=199 Lonely Tear Drops
TTITLE6=Bootie On Duty
TTITLE7=Nightclubbing
TTITLE8=My Kind Of Baby
EXTD=YEAR: 2004
EXTT0=
EXTT1=
EXTT2=
EXTT3=
EXTT4=
EXTT5=
EXTT6=
EXTT7=
EXTT8=
PLAYORDER=
